<?xml version="1.0" encoding="UTF-8"?>
<svg id="Layer_1" xmlns="http://www.w3.org/2000/svg" viewBox="0 0 512 512">
  <defs>
    <style>
      .cls-1 {
        fill: #fdec54;
      }

      .cls-2 {
        fill: #26225a;
      }

      .cls-3 {
        fill: #fbf5af;
      }
    </style>
  </defs>
  <rect class="cls-2" x="-.35088" width="512.35088" height="512.35088"/>
  <g>
    <path class="cls-3" d="M216.12615,383.31165h4.56843c3.91048,0,7.08567,2.53197,7.08567,6.53452,0,4.05901-3.17519,6.49769-7.08567,6.49769h-4.56843v-13.03221ZM220.69458,393.6163c2.22632,0,3.98822-1.26599,3.98822-3.77013,0-2.4665-1.76191-3.71408-3.98822-3.71408h-1.50985v7.48421h1.50985Z"/>
    <path class="cls-3" d="M230.77378,383.31165h8.94374v2.64368h-5.92403v2.40145h5.01402v2.71856h-5.01402v2.58762h6.1949v2.68091h-9.21461v-13.03221Z"/>
    <path class="cls-3" d="M242.90375,395.62699v-3.09991c1.07449.67023,2.33311,1.21034,4.00746,1.21034,1.02621,0,2.45873-.29788,2.45873-1.15428,0-1.84333-6.60162-.96811-6.60162-5.32459,0-2.42027,2.03278-4.17031,5.111-4.17031,1.23898,0,2.7296.28847,3.7554.76352v2.98779c-.95829-.56793-2.28442-.99593-3.42643-.99593-1.43252,0-2.40063.50247-2.40063,1.19152,0,1.82451,6.73706.89364,6.73706,5.30617,0,2.43868-2.05201,4.22595-5.14946,4.22595-2.16822,0-3.50417-.48405-4.49151-.94028Z"/>
    <path class="cls-3" d="M255.58653,383.31165h3.07781v13.03221h-3.07781v-13.03221Z"/>
    <path class="cls-3" d="M261.90827,389.84617c0-4.03978,3.23289-6.79516,7.35655-6.79516,1.18088,0,2.88468.22341,4.14289.76311v2.96038c-1.00657-.59576-2.49719-.89364-3.69771-.89364-2.78771,0-4.66541,1.61051-4.66541,4.00295,0,2.32698,1.78114,3.9469,4.52997,3.9469.52252,0,1.07449-.05606,1.5876-.19559v-2.33639h-2.28442v-2.51356h5.2849v6.73951c-1.12277.65141-3.27176,1.13587-4.99438,1.13587-4.20099,0-7.25998-2.86749-7.25998-6.81439Z"/>
    <path class="cls-3" d="M277.97901,383.31165h2.96161l5.73049,8.2105v-8.2105h2.94237v13.03221h-2.94237l-5.74972-8.24732v8.24732h-2.94237v-13.03221Z"/>
  </g>
  <g>
    <path class="cls-1" d="M213.48322,120.23017c-.72663-.419-1.45326-.838-2.30543-1.32938v7.51144c-1.17241,8.77751,2.55941,14.29823,11.21507,16.32801.53103-1.33429,1.14036-2.67908,1.60655-4.0718,1.37101-4.09584,1.51809-8.25989-1.63989-11.48182-2.6089-2.66174-5.89196-4.66269-8.8763-6.95645Z"/>
    <path class="cls-1" d="M259.0848,118.19232c-2.02238-3.45851-4.04477-6.91701-6.08998-10.41451-1.70249,2.82509-3.35751,5.57138-5.01256,8.31768-1.19065,2.6267-2.79453,5.14959-3.48596,7.90171-1.43773,5.72271,2.2665,11.00932,7.73175,11.65694,5.20921.61727,9.80184-3.401,9.86315-8.81177.03616-3.1914-.88484-6.156-3.00641-8.65004Z"/>
    <path class="cls-1" d="M284.20232,232.83269l.22434.19921c-.06486-.07832-.12972-.15665-.19455-.23498-1.70099-2.57893-4.35252-3.50595-7.18535-4.01192-5.41401-.967-10.30735.64959-14.48563,3.87257-4.52991,3.49419-8.8589,7.30237-12.94065,11.3143-13.85311,13.61604-30.17543,22.54672-49.3561,25.66193-5.74663.9333-11.97059,1.18609-17.60918.00301-8.71667-1.8289-15.09859-7.52599-18.85317-15.82245-.2546-.56254-.53425-1.11371-.80225-1.67019.99411,4.84277,2.5747,9.29208,5.52112,13.41239,3.66735,5.12853,8.17304,8.79147,14.05283,10.7013,7.31094,2.37466,14.82521,2.31623,22.33658,1.10729,7.36644-1.18562,14.35539-3.61309,21.25964-6.4214,10.23462-4.16292,19.89074-9.32436,28.04747-16.79229,5.25051-4.80712,9.96619-10.21957,14.7235-15.53789,4.14822-4.63739,8.8478-7.35057,15.26141-5.78088Z"/>
    <path class="cls-1" d="M319.97784,185.34766c-12.93171-22.19143-31.94268-35.99549-57.47198-39.5824-29.93048-4.20527-61.05992,11.01707-77.37473,39.81939-15.66394,27.65331-10.07347,60.67613-.40984,74.97068.84016-.59386,1.71729-1.1399,2.5121-1.787,8.88139-7.23102,17.76795-14.45589,26.61383-21.73022,3.81864-3.14021,3.79888-3.21685,7.72231.02215.9875.81524,1.67732.89763,2.66079-.02766,2.33414-2.19606,4.85287-4.19955,7.13685-6.44385,1.20161-1.18072,2.07915-1.04947,3.23537-.09188,2.1235,1.75873,4.46769,3.28312,6.41559,5.21242,1.8539,1.83617,3.14277,1.40772,4.83006-.13526,5.64741-5.16445,11.38581-10.2294,17.09049-15.33119,3.27841-2.9319,6.56175-5.8583,9.83773-8.79291,2.71694-2.4338,2.6333-2.33168,5.48384-.16748,8.42922,6.39967,16.91184,12.72962,25.43437,19.00426.58698.43214,2.02821.58681,2.47691.19273,7.89991-6.938,13.10264-15.10478,11.10519-26.22555-1.04568-5.82208-3.92137-10.4382-9.46949-13.00139-4.29207-1.98289-9.56819-1.16101-12.74777,1.8626-2.49271,2.37041-2.61548,6.41201-.26132,8.60109,1.24209,1.155,3.26904,1.17738,4.15508-.07768.885-1.25354.9934-2.46836-.67231-3.31382-.29865-.1516-.65908-.85827-.56593-.97808.27878-.35843.74378-.71817,1.17991-.78312,2.04994-.30532,3.92208,1.31785,4.09916,3.5001.35192,4.33607-3.10773,6.51563-7.41067,6.0507-5.44948-.58879-8.70513-6.77059-7.04497-12.82264,2.03414-7.41525,10.37956-12.70456,18.80333-12.19646,4.63945.27984,8.68387,1.86629,12.63609,4.25246Z"/>
    <path class="cls-1" d="M231.69721,277.18159c-11.10944,5.13602-22.34325,9.90811-34.49172,12.08022-.50847.09093-.97818.3985-1.46594.60512-.05464.26025-.10926.52048-.16389.78073,2.68253,1.16567,5.28547,3.00338,8.06702,3.33275,3.76563.44586,7.83936.3701,11.47733-.60939,8.13194-2.18946,16.11362-4.96784,24.08301-7.71919,5.06379-1.74822,9.9985-3.87135,14.98613-5.83899,16.39128-6.46663,32.47207-13.53315,46.58749-24.3496,12.24336-9.38189,21.66658-20.87207,26.18173-35.86021,2.1515-7.14203,2.0823-14.35352-.24344-21.13775-.21532,4.29122.06407,8.97078-.77447,13.44063-2.17982,11.61934-9.32182,20.2275-18.02465,27.70829-8.16667,7.01994-17.50598,12.14253-27.30121,16.42933-10.85002,4.74842-21.80321,9.26144-32.71962,13.8576"/>
    <path class="cls-1" d="M235.66562,307.75753c8.7905-5.06064,17.95019-9.28579,27.35056-13.12549,11.57904-4.72957,23.62826-8.61854,33.58543-16.69712,3.54091-2.87287,7.41114-5.33945,10.95636-8.20739,7.28194-5.89081,12.8574-13.24616,17.24603-21.445,3.99844-7.46982,7.34713-15.22039,7.29785-24.59351-1.13777,3.19652-1.86506,5.86483-3.006,8.34267-6.81293,14.79579-17.35393,26.38383-30.77007,35.47921-10.55139,7.15324-22.18982,12.16959-33.77569,17.29069-11.91456,5.26642-24.14621,9.90396-34.81816,17.61804"/>
    <path class="cls-1" d="M252.86981,310.70618c17.2821-.45923,32.98976-5.89166,47.36413-15.34182,2.73208-1.79616,5.08108-4.17107,7.63455-6.24481,1.00898-.81941,2.25112-1.40051,3.11645-2.33951,3.55974-3.86285,7.14766-7.71285,10.48131-11.76812,6.58233-8.00708,10.87164-17.17696,13.13919-27.28204.23749-1.05833.13576-2.19278.1914-3.29192-.80839.99205-1.24329,2.00857-1.69364,3.01823-7.12202,15.96739-17.65816,29.03008-32.38557,38.67692-10.55615,6.91455-22.1937,11.51811-33.66029,16.53879"/>
    <path class="cls-1" d="M335.29802,143.32321c-3.37695.63921-6.30817,1.25432-9.26087,1.73792-3.81065.62409-7.714.85942-10.8519,3.5694-3.32723,2.87354-4.45871,7.48529-2.68026,11.30728,1.7427,3.74513,5.62001,5.64307,10.06251,4.78786,4.33839-.83516,6.61991-3.97725,8.04291-7.78916,1.27043-3.40316,2.22554-6.92312,3.36489-10.37666.35764-1.08399.86144-2.11978,1.32272-3.23664Z"/>
    <path class="cls-1" d="M171.20526,143.48219c1.12679,3.45502,2.12827,6.86285,3.35817,10.18616.92001,2.48596,1.8649,5.03449,3.27571,7.25164,2.68657,4.22207,9.15981,5.21699,13.2078,2.31001,2.93311-2.10632,4.33904-5.63381,3.56895-8.95448-.86234-3.7185-4.39145-7.3284-7.5963-7.89461-5.24769-.92712-10.48407-1.91822-15.81434-2.89872Z"/>
    <path class="cls-1" d="M141.42822,219.13744c3.87759,2.25576,7.31094,4.31038,10.80609,6.25382,1.15121.6401,2.42633,1.24645,3.70717,1.42796,3.49932.49581,7.05082.30709,9.47235-4.00659,1.45628-2.59422,1.29874-6.12618-.75977-9.01164-2.17118-3.04339-6.79474-4.23996-10.90983-2.15069-4.26858,2.1672-8.21857,4.96189-12.31601,7.48715Z"/>
    <path class="cls-1" d="M364.84349,219.83433c-.02482-.23816-.04966-.47632-.07448-.71449-.71615-.51747-1.41004-1.06963-2.15276-1.54565-1.91024-1.22426-4.03203-2.19717-5.72012-3.67054-2.43343-2.12388-5.09256-3.25798-8.28534-3.18953-4.94691.10606-8.51457,3.74387-8.40855,8.55028.10167,4.6088,3.63668,7.84845,8.59138,7.73056,6.38964-.15201,10.43583-5.32477,16.04988-7.16063Z"/>
    <path class="cls-1" d="M355.33746,177.86051c-.13827-.21017-.27654-.42032-.41479-.63049-1.52139-.22836-3.03552-.54944-4.56541-.66993-9.32996-.73484-14.58506.17506-18.27564,9.50741-.62305,1.57551-.20502,2.30874.94814,3.1197,3.45684,2.43108,9.3659,2.50811,12.51837-.48473,3.52085-3.34251,6.54756-7.20551,9.78933-10.84197Z"/>
    <path class="cls-1" d="M295.0643,118.75169c-12.68715,4.73239-16.51031,13.32227-11.06523,23.95268,6.97101-1.71072,11.39272-6.17843,11.08556-14.11207-.1234-3.18748-.02033-6.38372-.02033-9.84061Z"/>
    <path class="cls-1" d="M150.87755,177.42737c2.9955,3.61285,5.63567,6.90919,8.39923,10.09864,2.75932,3.18452,6.41402,3.84549,10.36978,3.19658,4.27462-.70121,5.21036-2.64895,3.37572-6.53039-1.66033-3.51265-3.93659-6.37342-7.89643-7.2936-4.58299-1.06498-9.15381-.59642-14.24831.52876Z"/>
  </g>
  <g>
    <path class="cls-3" d="M110.31294,376.06354v-10.40274c3.46758,2.2493,7.52864,4.06106,12.93328,4.06106,3.31164,0,7.93519-.99969,7.93519-3.87379,0-6.18539-21.30602-3.24898-21.30602-17.86942,0-8.12246,6.56062-13.99563,16.49484-13.99563,3.99875,0,8.80992.96836,12.12121,2.56153v10.0282c-3.0927-1.90539-7.3727-3.34262-11.05887-3.34262-4.62356,0-7.74758,1.68715-7.74758,3.99875,0,6.12309,21.7432,2.99906,21.7432,17.80676,0,8.18512-6.62293,14.18324-16.61981,14.18324-6.99781,0-11.30914-1.62449-14.49547-3.15535Z"/>
    <path class="cls-3" d="M148.58684,356.66361c0-12.6214,10.2468-22.80555,22.8682-22.80555,12.62071,0,22.86751,10.18414,22.86751,22.80555,0,12.68336-10.2468,22.86751-22.86751,22.86751-12.6214,0-22.8682-10.18414-22.8682-22.86751ZM184.26337,356.66361c0-7.43535-5.62324-13.24586-12.80832-13.24586s-12.80867,5.81051-12.80867,13.24586,5.62324,13.30817,12.80867,13.30817,12.80832-5.87316,12.80832-13.30817Z"/>
    <path class="cls-3" d="M203.98179,334.73279h9.87191v34.42691h18.93141v9.30942h-28.80332v-43.73633Z"/>
    <path class="cls-3" d="M256.12496,334.73279h11.99625l16.24492,43.73633h-10.68399l-3.03039-8.74727h-17.18196l-3.03039,8.74727h-10.55937l16.24492-43.73633ZM268.15254,361.1622l-6.06078-16.40121-6.09176,16.40121h12.15254Z"/>
    <path class="cls-3" d="M293.11827,334.73279h17.11965c9.49703,0,16.30723,6.24805,16.30723,14.55778,0,5.24836-3.21766,10.05953-7.84121,12.87133l10.15316,16.30723h-11.68402l-8.46602-14.12059h-5.84184v14.12059h-9.74695v-43.73633ZM310.11296,356.16377c3.9361,0,6.56028-2.87445,6.56028-6.24805,0-3.37429-2.62418-6.24805-6.56028-6.24805h-7.24773v12.49609h7.24773Z"/>
    <path class="cls-3" d="M338.38964,334.73279h9.93422v43.73633h-9.93422v-43.73633Z"/>
    <path class="cls-3" d="M373.31849,334.73279h11.99625l16.24492,43.73633h-10.68399l-3.03039-8.74727h-17.1823l-3.03004,8.74727h-10.55937l16.24492-43.73633ZM385.34607,361.1622l-6.06043-16.40121-6.09211,16.40121h12.15254Z"/>
  </g>
  <g>
    <path class="cls-1" d="M173.89935,464.2217h1.35938l-.25781,4.47559h-3.0293l1.92773-4.47559Z"/>
    <path class="cls-1" d="M177.47942,464.2217h8.31299v2.63379h-5.49072v2.75391h4.57861v2.61621h-4.57861v4.04492h-2.82227v-12.04883Z"/>
    <path class="cls-1" d="M187.28997,473.63674h2.03125v-6.79785h-2.03125v-2.61719h6.86768v2.61719h-2.01367v6.79785h2.01367v2.63379h-6.86768v-2.63379Z"/>
    <path class="cls-1" d="M196.41302,464.2217h2.70215l4.95703,7.29883v-7.29883h2.771v12.04883h-2.68506l-4.99121-7.12598v7.12598h-2.75391v-12.04883Z"/>
    <path class="cls-1" d="M209.52825,464.2217h4.13086c3.44238,0,6.2998,2.30664,6.2998,6.04199,0,3.78613-2.85742,6.00684-6.2998,6.00684h-4.13086v-12.04883ZM213.65911,473.58498c2.1001,0,3.37402-1.25586,3.37402-3.30469,0-2.03027-1.27393-3.30469-3.37402-3.30469h-1.27344v6.60937h1.27344Z"/>
    <path class="cls-1" d="M228.2387,471.43361l-4.68164-7.21191h3.58008l2.54736,4.47559,2.53027-4.47559h3.59717l-4.69873,7.24707v4.80176h-2.87451v-4.83691Z"/>
    <path class="cls-1" d="M235.41644,470.22951c0-3.42578,2.82275-6.21387,6.28223-6.21387,3.47705,0,6.2998,2.78809,6.2998,6.21387,0,3.47656-2.82275,6.26465-6.2998,6.26465-3.45947,0-6.28223-2.78809-6.28223-6.26465ZM241.69866,473.6885c1.89355,0,3.35645-1.53125,3.35645-3.45898,0-1.91113-1.46289-3.42578-3.35645-3.42578-1.87598,0-3.33887,1.51465-3.33887,3.42578,0,1.92773,1.46289,3.45898,3.33887,3.45898Z"/>
    <path class="cls-1" d="M249.78899,471.00392v-6.78223h2.87402v6.67871c0,2.20312,1.10156,2.97754,2.40967,2.97754s2.40967-.77441,2.40967-2.97754v-6.67871h2.875v6.78223c0,3.90723-2.15234,5.49023-5.28467,5.49023s-5.28369-1.58301-5.28369-5.49023Z"/>
    <path class="cls-1" d="M262.9052,464.2217h4.76758c2.63379,0,4.52637,1.75586,4.52637,4.0625,0,1.48047-.92969,2.80566-2.16797,3.59766l2.89062,4.38867h-3.30469l-2.42676-3.78711h-1.46289v3.78711h-2.82227v-12.04883ZM267.43157,470.09182c1.20508,0,1.89355-.6543,1.89355-1.65234,0-.99902-.68848-1.66992-1.89355-1.66992h-1.7041v3.32227h1.7041Z"/>
    <path class="cls-1" d="M277.98235,475.63381v-2.77148c1.11914.56836,2.41016.94727,3.64941.94727,1.20508,0,2.01367-.37891,2.01367-1.01562,0-1.61816-5.4043-1.1875-5.4043-5.04297,0-2.28906,1.87598-3.73535,4.44043-3.73535,1.08398,0,2.41016.24121,3.33887.6709v2.7373c-.87793-.41309-2.04785-.77441-3.21777-.77441-1.01562,0-1.7041.29199-1.7041.87695,0,1.61816,5.54199,1.10156,5.54199,5.1123,0,2.25488-1.75586,3.85547-4.83691,3.85547-1.39355,0-2.73633-.34375-3.82129-.86035Z"/>
    <path class="cls-1" d="M288.55169,464.2217h4.80176c2.59961,0,4.50977,1.77344,4.50977,4.16602,0,2.42676-1.92773,4.44043-4.68164,4.44043h-1.77344v3.44238h-2.85645v-12.04883ZM293.06048,470.26369c1.22266,0,1.87695-.75781,1.87695-1.75586,0-1.06738-.6543-1.75586-1.87695-1.75586h-1.65234v3.51172h1.65234Z"/>
    <path class="cls-1" d="M301.8388,464.2217h3.5459l4.40625,12.04883h-3.08105l-.80859-2.30664h-4.57812l-.80957,2.30664h-3.08105l4.40625-12.04883ZM305.2304,471.43361l-1.61816-4.81934-1.61816,4.81934h3.23633Z"/>
    <path class="cls-1" d="M311.11712,464.2217h4.76758c2.63281,0,4.52637,1.75586,4.52637,4.0625,0,1.48047-.92871,2.80566-2.16895,3.59766l2.89258,4.38867h-3.30469l-2.42773-3.78711h-1.46289v3.78711h-2.82227v-12.04883ZM315.64349,470.09182c1.20508,0,1.89355-.6543,1.89355-1.65234,0-.99902-.68848-1.66992-1.89355-1.66992h-1.7041v3.32227h1.7041Z"/>
    <path class="cls-1" d="M322.71868,464.2217h2.85742v4.61328l4.0957-4.61328h3.37402l-4.88867,5.40527,5.1123,6.64355h-3.5459l-3.58008-4.80176-.56738.6709v4.13086h-2.85742v-12.04883Z"/>
    <path class="cls-1" d="M334.44036,464.2217h3.04688l-1.94531,4.47559h-1.35938l.25781-4.47559Z"/>
  </g>
</svg>