<?xml version="1.0" encoding="UTF-8"?>
<svg id="Layer_2" data-name="Layer 2" xmlns="http://www.w3.org/2000/svg" viewBox="0 0 402.59 194.49">
  <defs>
    <style>
      .cls-1 {
        stroke: #1eabce;
      }

      .cls-1, .cls-2, .cls-3 {
        fill: none;
        stroke-miterlimit: 10;
        stroke-width: 5px;
      }

      .cls-2 {
        stroke: #eed8c5;
      }

      .cls-3 {
        stroke: #f05655;
      }
    </style>
  </defs>
  <g id="Layer_1-2" data-name="Layer 1">
    <path class="cls-3" d="M2.5,2.5h75.21c41.73,0,69.82,27.03,69.82,64.39s-28.09,64.56-72.57,66h-29.1v59.1s-43.37,0-43.37,0V2.5ZM76.61,94.53c17.29,0,28.83-10.28,28.83-24.9,0-16.24-11.53-28.96-28.82-28.96h-30.75v53.86s30.74,0,30.74,0Z"/>
    <rect class="cls-3" x="56.56" y="142.4" width="49.59" height="49.59"/>
    <path class="cls-1" d="M180.54,142.58v-.02h-21.89v-.02h-10.74v31.15l-20.91-31.15h-10.81v49.45h10.74v-31.29l20.98,31.29h10.74v-.02h22.07v.02h11.14v-39.41h13.26v-10s-24.58,0-24.58,0ZM158.94,181.81v-9.81h18.28v-10.31h-18.28v-9.11h21.78v29.22h-21.78Z"/>
    <g>
      <path class="cls-2" d="M244.87,82.96c0-12.28,9.97-22.19,22.25-22.19s22.25,9.91,22.25,22.19-9.97,22.25-22.25,22.25-22.25-9.91-22.25-22.25ZM279.58,82.96c0-7.23-5.47-12.89-12.46-12.89s-12.46,5.65-12.46,12.89,5.47,12.95,12.46,12.95,12.46-5.71,12.46-12.95Z"/>
      <path class="cls-2" d="M380.71,77c7.91-4.81,13.42-13.05,13.42-22.03,0-14.22-11.66-24.92-28.15-24.97l-12.04.08h-17.2l-.14,23.79.09,17.06c.19,14.21-7.37,18.63-15.47,18.7-7.68.07-15.36-4.49-15.36-18.7V30.07h-16.51v41.8c0,23.72,13.32,33.12,31.87,33.12,5.77,0,11.16-1.27,15.66-3.22l.02,3.14h16.68v-24.17h10l14.49,24.17h20l-17.38-27.91ZM366.02,67.26h-12.23v-21.09h12.23c6.64,0,11.07,4.85,11.07,10.55s-4.43,10.55-11.07,10.55Z"/>
      <path class="cls-2" d="M194.09,104.72l3.8-10.98h21.57l3.8,10.98h12.72s8.35,0,8.35,0v-61.22h17.16v-13.51h-48.74v13.51h17.16s0,39.27,0,39.27c0,.68-.95.85-1.19.22-4.15-11.06-8.3-22.13-12.45-33.19-7.43.01-7.62.01-15.05.02l-14.51,39.07h-17.64V29.99h-16.89v74.82l28.65-.09h13.26ZM201.08,82.99l7.63-16.68,7.63,16.68h-15.26Z"/>
    </g>
  </g>
</svg>