<?xml version="1.0" encoding="UTF-8"?>
<svg id="Layer_2" data-name="Layer 2" xmlns="http://www.w3.org/2000/svg" viewBox="0 0 330.11 94.05">
  <defs>
    <style>
      .cls-1 {
        stroke: #f05655;
      }

      .cls-1, .cls-2 {
        fill: none;
        stroke-width: 5px;
      }

      .cls-2 {
        stroke: #1eabce;
      }
    </style>
  </defs>
  <g id="Layer_1-2" data-name="Layer 1">
    <path class="cls-1" d="M41.29,27.96c0,14.44-8.04,20.16-19.4,20.16S2.5,42.39,2.5,27.96V2.52h10.05v24.87c0,8.65,4.64,11.38,9.35,11.38s9.35-2.73,9.35-11.38"/>
    <path class="cls-1" d="M41.65,1.64l18.58,26.32V2.52v44.52l-18.94-28.13"/>
    <path class="cls-1" d="M60.23,2.52h15.01c12.85,0,23.28,8.65,23.28,22.32s-10.43,22.19-23.28,22.19h-15.01V2.52ZM75.23,37.72c7.31,0,13.1-4.32,13.1-12.88s-5.79-12.69-13.1-12.69h-4.96v25.56h4.96Z"/>
    <path class="cls-1" d="M88.33,2.5h29.38v9.03h-19.46v8.2h16.47v9.28h-16.47v8.84h19.36l.08,9.16h-29.36V2.5Z"/>
    <path class="cls-1" d="M117.7,2.5h17.42c9.67,0,16.6,6.36,16.6,14.82,0,5.34-3.28,10.24-7.98,13.1l9.21,14.79-9.72,3.56-9.67-16.12h-5.95v14.37h-9.92V2.5ZM134.99,24.31c4.01,0,6.68-2.93,6.68-6.36s-2.67-6.36-6.68-6.36h-7.38v12.72h7.38Z"/>
    <path class="cls-2" d="M2.75,48.12h15.01c12.85,0,23.28,7.53,23.28,21.2s-10.43,22.19-23.28,22.19H2.75v-43.39ZM17.76,82.2c7.31,0,13.48-4.39,13.48-12.94s-6.17-12.62-13.48-12.62h-4.96v25.56h4.96Z"/>
    <path class="cls-2" d="M31.24,47.04l29.81-.04v8.87h-19.76v8.2h17.05v9.28h-17.05v7.5h20.64v10.68s-30.69.01-30.69.01v-44.52Z"/>
    <path class="cls-2" d="M57.97,47h11.04l11.57,32.72,10.43-32.72h11.51l-16.79,44.52h-11.45l-16.32-44.52Z"/>
    <path class="cls-2" d="M88.33,47.02h29s0,9.02,0,9.02l-18.19-.08-3.09,8.19,14.86.1v9.28h-18.4l-3.33,8.84h28.15v9.16h-29v-44.52Z"/>
    <path class="cls-2" d="M117.62,47l10,.02v35.04h9.8l15.53,9.46h-35.33v-44.52Z"/>
    <path class="cls-2" d="M132.64,68.24c0-12.85,10.43-23.21,23.28-23.21s22.85,10.37,22.85,23.21-10.01,23.28-22.85,23.28-23.28-10.37-23.28-23.28ZM168.95,68.24c0-7.57-5.72-13.48-13.04-13.48s-13.04,5.91-13.04,13.48,5.72,13.55,13.04,13.55,13.04-5.98,13.04-13.55Z"/>
    <path class="cls-2" d="M168.74,47h17.42c9.67,0,16.17,6.36,16.17,15.14s-6.51,16.22-16.81,16.22h-6.74v13.16h-10.05v-44.52ZM185.91,69.44c4.01,0,6.68-3.24,6.68-6.68,0-3.82-2.67-6.8-6.68-6.8h-7.12v13.48h7.12Z"/>
    <path class="cls-2" d="M192.58,47h15.96l10.02,30.65,10.02-30.65h6.3v44.52h0v-35.01l-1.72,5.76-10.37,29.25h-8.46l-10.71-28.81-2.2-5.99.04,34.79h-8.87v-44.52Z"/>
    <path class="cls-2" d="M234.87,47h29.38v9.03h-19.46v8.2h16.47v9.28h-16.47v8.84h20.35v9.16h-30.27v-44.52Z"/>
    <path class="cls-2" d="M305.61,91.51h-11.96l-18.89-28.17v28.17h-9.67v-44.52h9.73l18.82,28.04v-18.63"/>
    <path class="cls-2" d="M305.61,56.41v35.1h10.05v-35.1h11.96v-9.41h-33.96v9.41h11.96Z"/>
    <polyline class="cls-1" points="31.24 27.39 31.24 2.52 41.29 2.52 41.29 27.96"/>
  </g>
</svg>